<svg width="30" height="36" viewBox="0 0 30 36" fill="none" xmlns="http://www.w3.org/2000/svg">
<path d="M4.39451 25.4551C3.00266 24.0746 1.89792 22.4322 1.14401 20.6226C0.390102 18.813 0.00195312 16.8721 0.00195312 14.9117C0.00195312 12.9514 0.390102 11.0104 1.14401 9.20082C1.89792 7.39123 3.00266 5.74882 4.39451 4.36833C10.252 -1.45611 19.7499 -1.45611 25.6073 4.36833C26.9994 5.74884 28.1043 7.39135 28.8584 9.20108C29.6124 11.0108 30.0006 12.9519 30.0006 14.9125C30.0006 16.873 29.6124 18.8141 28.8584 20.6239C28.1043 22.4336 26.9994 24.0761 25.6073 25.4566L15.0009 36L4.39451 25.4551Z" fill="#E83E45"/>
<circle cx="15" cy="15" r="10" fill="white"/>
</svg>
