<svg width="36" height="36" viewBox="0 0 36 36" fill="none" xmlns="http://www.w3.org/2000/svg">
<path d="M7.39451 25.4551C6.00266 24.0746 4.89792 22.4322 4.14401 20.6226C3.3901 18.813 3.00195 16.8721 3.00195 14.9117C3.00195 12.9514 3.3901 11.0104 4.14401 9.20082C4.89792 7.39123 6.00266 5.74882 7.39451 4.36833C13.252 -1.45611 22.7499 -1.45611 28.6073 4.36833C29.9994 5.74884 31.1043 7.39135 31.8584 9.20108C32.6124 11.0108 33.0006 12.9519 33.0006 14.9125C33.0006 16.873 32.6124 18.8141 31.8584 20.6239C31.1043 22.4336 29.9994 24.0761 28.6073 25.4566L18.0009 36L7.39451 25.4551Z" fill="#E83E45"/>
<circle cx="17.999" cy="15" r="3.85059" fill="#E83E45"/>
<g clip-path="url(#clip0_502_34109)">
<path d="M14.9004 15.1473C14.9004 15.535 14.9768 15.919 15.1252 16.2773C15.2736 16.6355 15.4911 16.9611 15.7653 17.2353C16.0395 17.5095 16.365 17.727 16.7233 17.8754C17.0815 18.0238 17.4655 18.1002 17.8533 18.1002C18.2411 18.1002 18.6251 18.0238 18.9833 17.8754C19.3416 17.727 19.6671 17.5095 19.9413 17.2353C20.2155 16.9611 20.433 16.6355 20.5814 16.2773C20.7298 15.919 20.8062 15.535 20.8062 15.1473C20.8062 14.7595 20.7298 14.3755 20.5814 14.0172C20.433 13.659 20.2155 13.3334 19.9413 13.0592C19.6671 12.785 19.3416 12.5675 18.9833 12.4191C18.6251 12.2707 18.2411 12.1943 17.8533 12.1943C17.4655 12.1943 17.0815 12.2707 16.7233 12.4191C16.365 12.5675 16.0395 12.785 15.7653 13.0592C15.4911 13.3334 15.2736 13.659 15.1252 14.0172C14.9768 14.3755 14.9004 14.7595 14.9004 15.1473Z" fill="white"/>
<path d="M17.8527 7.43555C13.5935 7.43555 10.1406 10.888 10.1406 15.1472C10.1406 19.4064 13.5935 22.8593 17.8527 22.8593C22.1119 22.8593 25.5644 19.4064 25.5644 15.1472C25.5644 10.888 22.1119 7.43555 17.8527 7.43555ZM17.8527 8.68555C21.4215 8.68555 24.3144 11.5785 24.3144 15.1472C24.3144 18.716 21.4215 21.6093 17.8527 21.6093C14.284 21.6093 11.3906 18.716 11.3906 15.1472C11.3906 11.5785 14.284 8.68555 17.8527 8.68555Z" fill="white"/>
<path d="M18.1484 5.20801C18.3142 5.20801 18.4732 5.27386 18.5904 5.39107C18.7076 5.50828 18.7734 5.66725 18.7734 5.83301V7.76509C18.7734 7.93085 18.7076 8.08982 18.5904 8.20703C18.4732 8.32424 18.3142 8.39009 18.1484 8.39009C17.9827 8.39009 17.8237 8.32424 17.7065 8.20703C17.5893 8.08982 17.5234 7.93085 17.5234 7.76509V5.83301C17.5234 5.66725 17.5893 5.50828 17.7065 5.39107C17.8237 5.27386 17.9827 5.20801 18.1484 5.20801ZM18.1484 21.6093C18.3142 21.6093 18.4732 21.6751 18.5904 21.7923C18.7076 21.9095 18.7734 22.0685 18.7734 22.2343V24.1663C18.7734 24.3321 18.7076 24.4911 18.5904 24.6083C18.4732 24.7255 18.3142 24.7913 18.1484 24.7913C17.9827 24.7913 17.8237 24.7255 17.7065 24.6083C17.5893 24.4911 17.5234 24.3321 17.5234 24.1663V22.2343C17.5234 22.0685 17.5893 21.9095 17.7065 21.7923C17.8237 21.6751 17.9827 21.6093 18.1484 21.6093Z" fill="white"/>
<path d="M8.20898 15.1475C8.20898 14.9817 8.27483 14.8227 8.39204 14.7055C8.50925 14.5883 8.66822 14.5225 8.83398 14.5225H10.7661C10.9318 14.5225 11.0908 14.5883 11.208 14.7055C11.3252 14.8227 11.3911 14.9817 11.3911 15.1475C11.3911 15.3132 11.3252 15.4722 11.208 15.5894C11.0908 15.7066 10.9318 15.7725 10.7661 15.7725H8.83398C8.66822 15.7725 8.50925 15.7066 8.39204 15.5894C8.27483 15.4722 8.20898 15.3132 8.20898 15.1475ZM24.6102 15.1475C24.6102 14.9817 24.6761 14.8227 24.7933 14.7055C24.9105 14.5883 25.0695 14.5225 25.2352 14.5225H27.1673C27.3331 14.5225 27.492 14.5883 27.6093 14.7055C27.7265 14.8227 27.7923 14.9817 27.7923 15.1475C27.7923 15.3132 27.7265 15.4722 27.6093 15.5894C27.492 15.7066 27.3331 15.7725 27.1673 15.7725H25.2352C25.0695 15.7725 24.9105 15.7066 24.7933 15.5894C24.6761 15.4722 24.6102 15.3132 24.6102 15.1475Z" fill="white"/>
</g>
<defs>
<clipPath id="clip0_502_34109">
<rect width="20" height="20" fill="white" transform="translate(8 5)"/>
</clipPath>
</defs>
</svg>
